<svg width="34" height="25" fill="none" xmlns="http://www.w3.org/2000/svg"><path d="M33.585 0H.415C.182 0 0 .164 0 .372v17.884c0 .209.182.373.415.373h22.97l-1.318 5.924a.361.361 0 0 0 .083.313c.083.09.2.134.324.134h8.292c.125 0 .24-.052.324-.134a.362.362 0 0 0 .083-.313l-1.319-5.924h3.732c.232 0 .414-.164.414-.373V.372C34 .164 33.818 0 33.586 0ZM30.26 24.247h-3.226v-3.353c0-.208-.182-.372-.414-.372-.233 0-.415.164-.415.372v3.353H22.98l1.56-7.004v-.038h4.16v.038l1.56 7.004Zm-6.062-7.787-2.413-3.763 2.413-3.756h4.835l2.413 3.756-2.413 3.763h-4.835Zm8.972 1.424h-3.4a.323.323 0 0 0-.082.014l-.175-.774a.479.479 0 0 0 .116-.105l2.654-4.135a.337.337 0 0 0 0-.373L29.63 8.383a.429.429 0 0 0-.356-.186h-5.308a.428.428 0 0 0-.356.186l-2.654 4.128a.337.337 0 0 0 0 .373l2.654 4.135c.025.045.075.075.116.105l-.166.76H.83V.745h32.34v17.139Z" fill="#F60"/><path d="M2.84 3.81h27.318c.239 0 .427-.173.427-.395 0-.22-.188-.395-.427-.395H2.841c-.24 0-.427.174-.427.395 0 .222.188.396.427.396Zm-.022 3.98H19.79a.396.396 0 0 0 .404-.395A.396.396 0 0 0 19.79 7H2.818a.396.396 0 0 0-.404.395c0 .221.178.395.404.395Zm-.028 4.162h14.317a.383.383 0 0 0 .377-.396.383.383 0 0 0-.377-.395H2.791a.383.383 0 0 0-.377.395c0 .222.166.396.377.396Zm.028 3.838H19.79a.396.396 0 0 0 .404-.395.396.396 0 0 0-.404-.395H2.818a.396.396 0 1 0 0 .79Zm0 7H19.79a.396.396 0 0 0 .404-.395.396.396 0 0 0-.404-.395H2.818a.396.396 0 1 0 0 .79ZM26.5 10.8c-.224 0-.4.176-.4.4 0 .224.176.4.4.4.664 0 1.2.536 1.2 1.2 0 .664-.536 1.2-1.2 1.2-.664 0-1.2-.536-1.2-1.2 0-.224-.176-.4-.4-.4-.224 0-.4.176-.4.4a2 2 0 1 0 2-2Z" fill="#F60"/></svg>