<svg width="34" height="25" fill="none" xmlns="http://www.w3.org/2000/svg"><path d="M7.486 16.276c-.193-.103-.471 0-.643.24a.732.732 0 0 0-.139.455c.012.147.078.267.188.325.193.103.47 0 .643-.236a.732.732 0 0 0 .139-.454c-.013-.156-.078-.272-.188-.33Zm19.897 0c-.192-.103-.47 0-.642.24a.732.732 0 0 0-.14.455c.013.147.078.267.189.325.192.103.47 0 .642-.236a.732.732 0 0 0 .14-.454c-.009-.156-.078-.272-.189-.33Z" fill="#F60"/><path d="M31.81 17.409a.584.584 0 0 0 .553-.464l1.62-6.738c.01-.031.005-.062.005-.094 0-.022.012-.04.012-.057 0-.01-.004-.018-.004-.031a.766.766 0 0 0-.024-.134c-.009-.031-.013-.067-.025-.094-.004-.004 0-.009-.004-.018l-3.09-6.693a.571.571 0 0 0-.528-.383h-3.994l.463-1.927a.663.663 0 0 0-.099-.535.554.554 0 0 0-.45-.24L6.343 0c-.315 0-.569.277-.569.62 0 .343.254.62.57.62h19.16l-3.59 14.934H10.208c.008-.607-.148-1.173-.467-1.624-.442-.624-1.125-.967-1.927-.967-1.433 0-2.84 1.11-3.397 2.595h-1.96c-.316 0-.57.277-.57.62 0 .344.254.62.57.62h1.719c-.004.49.106.945.319 1.342H2.456c-.315 0-.57.277-.57.62 0 .344.255.62.57.62h30.972c.315 0 .569-.276.569-.62 0-.343-.254-.62-.57-.62h-4.395c.352-.388.635-.843.827-1.342h1.952v-.01Zm-.83-11.277 1.527 3.3h-5.443l.793-3.3h3.123ZM9.016 16.625c-.278 1.15-1.4 2.127-2.447 2.127-.438 0-.807-.174-1.028-.487-.237-.334-.298-.807-.175-1.324.278-1.155 1.4-2.127 2.447-2.127.438 0 .806.174 1.027.486.238.339.303.807.176 1.325Zm.123 2.127a4.3 4.3 0 0 0 .827-1.343h14.106c-.004.49.107.946.32 1.343H9.138Zm19.771-2.127c-.278 1.15-1.4 2.127-2.447 2.127-.438 0-.803-.174-1.027-.487-.238-.339-.303-.807-.176-1.324.278-1.155 1.4-2.127 2.447-2.127.438 0 .802.174 1.027.486.237.339.303.807.176 1.325Zm-1.203-3.05c-1.433 0-2.84 1.11-3.397 2.595h-1.216l.377-1.561 2.566-10.666h3.933l.438.95H27.42a.583.583 0 0 0-.552.463L25.775 9.9a.664.664 0 0 0 .098.535c.107.152.275.24.45.24h6.369L31.37 16.17h-1.273c.008-.607-.147-1.173-.466-1.624-.439-.628-1.122-.972-1.924-.972Z" fill="#F60"/><path d="M16.681 4.892H3.012c-.315 0-.569.276-.569.62 0 .343.254.62.57.62H16.68c.315 0 .57-.277.57-.62-.001-.344-.255-.62-.57-.62Zm-7.403 5.164c0 .343.254.62.57.62h8.982c.315 0 .57-.281.57-.62 0-.344-.255-.62-.57-.62H9.847c-.315 0-.569.276-.569.62ZM5.386 12.74c0-.343-.254-.62-.57-.62H.57c-.315 0-.569.277-.569.62 0 .343.254.62.569.62h4.244c.315 0 .573-.277.573-.62Z" fill="#F60"/><path fill-rule="evenodd" clip-rule="evenodd" d="M.81 23.8a.957.957 0 0 0-.572.173A.538.538 0 0 0 0 24.4c0 .16.086.314.238.427A.954.954 0 0 0 .81 25h30.38c.214.002.42-.06.572-.173A.537.537 0 0 0 32 24.4a.538.538 0 0 0-.238-.427.957.957 0 0 0-.572-.173H.81Z" fill="#F60"/></svg>