<svg width="34" height="25" fill="none" xmlns="http://www.w3.org/2000/svg"><path d="M.376 11.844c.07 0 .139-.035.209-.07l1.982-1.45 1.182 3.557a.334.334 0 0 0 .312.242H5.14l1.044 7.873C6.217 23.86 11.71 25 16.997 25c5.285 0 10.744-1.105 10.814-3.004l1.043-7.873h1.078a.334.334 0 0 0 .313-.242l1.217-3.557 1.982 1.45c.07.035.139.07.208.07.07 0 .14-.035.209-.07.139-.103.174-.241.104-.38l-1.46-4.005 1.356-3.764c.035-.103.035-.207-.035-.276L32.018.242V.207c-.035-.034-.035-.069-.07-.069-.034-.034-.07-.034-.104-.034h-.104L27.15.31c-.069 0-.138.034-.208.103L25.69 1.45l-.105-.069c-.07-.034-.139-.069-.208-.069h-4.66c-.139 0-.243.07-.312.207a.369.369 0 0 0 .034.38l1.982 2.383-3.477 2.693c-.104.104-.174.242-.104.38l.939 2.452-2.782 2.382-2.782-2.382.94-2.452c.069-.138 0-.31-.105-.38l-3.477-2.693 1.982-2.383a.368.368 0 0 0 .034-.38c-.07-.138-.174-.207-.313-.207H8.617a.494.494 0 0 0-.208.07l-.036.068L7.087.31c-.07-.068-.14-.068-.209-.103L2.288 0h-.104c-.035 0-.07.034-.104.034l-.105.104L.167 3.246c-.035.103-.07.207-.035.276l1.356 3.764-1.46 4.074c-.07.139 0 .311.104.38.07.07.14.104.244.104Zm3.964 1.588-1.113-3.35 1.426.035.452 3.315H4.34Zm1.843-4.04h.034c1.391 0 2.852-.967 3.339-2.175.104-.276.139-.553.139-.829l.208.207L8.79 9.53l-2.746-.034H4.896l-.035-.518c.348.242.8.38 1.322.414ZM4.966 7.148c.347-.933 1.6-1.727 2.677-1.727h.035c.521 0 .939.173 1.147.484.209.276.209.656.07 1.07-.348.967-1.6 1.76-2.712 1.726-.522 0-.94-.172-1.148-.483a1.269 1.269 0 0 1-.07-1.07Zm5.494-.104 3.094 2.659-.452 1.14-3.65-1.244 1.008-2.555Zm-.418-.829-.486-.414a1.39 1.39 0 0 0-.174-.31c-.348-.484-.974-.795-1.704-.795-1.426-.034-2.886.933-3.373 2.176a1.841 1.841 0 0 0 .104 1.657l.105.898H3.192l1.843-4.8 2.817.034 2.746.035-.556 1.52ZM5 10.117l3.651.035-.243 3.315-2.956-.035L5 10.117Zm12.031 14.538c-6.259 0-10.466-1.381-10.466-2.694 0-1.312 4.207-2.693 10.466-2.693 6.26 0 10.467 1.381 10.467 2.693s-4.208 2.694-10.467 2.694Zm11.58-11.223-2.956.035-.244-3.315 3.651-.035-.452 3.315Zm1.112-6.526c-.487-1.243-1.947-2.21-3.373-2.176-.73 0-1.356.311-1.704.795-.07.103-.104.207-.174.31l-.487.415-.59-1.554 2.746-.035 2.817-.034 1.878 4.765h-1.322l.105-.898c.313-.414.347-1.001.104-1.588Zm-.695 1.278c-.21.31-.626.483-1.148.483-1.113.034-2.33-.794-2.712-1.727-.14-.414-.14-.76.07-1.07.208-.31.625-.483 1.147-.483h.035c1.112 0 2.33.794 2.677 1.726.14.414.104.794-.07 1.07Zm-4.451 1.45-3.651 1.243-.417-1.174 3.094-2.659.974 2.59Zm-.418-3.073.21-.208c0 .277.034.553.138.83.452 1.242 1.913 2.175 3.338 2.175h.035c.521 0 .974-.138 1.321-.415l-.07.45h-1.077l-2.816.034L24.16 6.56Zm5.564 6.871h-.73l.452-3.315 1.425-.034-1.147 3.35Zm3.269-2.9L31.635 9.53 30.21 5.766l1.738 1.865 1.044 2.9Zm.208-7.045-1.182 3.246-2.364-2.52L31.774 1 33.2 3.487ZM27.324.932l3.79-.173-2.017 3.039-2.851-1.934 1.078-.932Zm-5.842 1.07h3.79l2.852 1.934-5.008.07-1.634-2.004ZM19.605 7.39l3.164-2.486.695 1.796-3.095 2.659-.764-1.969Zm.347 2.797.487 1.243c.07.138.174.207.313.207.035 0 .07 0 .104-.034l3.86-1.312.278 3.556c0 .173.174.311.348.311l3.199-.034-.94 7.147a3.045 3.045 0 0 0-.868-.69l-9.424-8.115 2.643-2.279Zm5.668 9.91c-2.087-.76-5.39-1.174-8.589-1.174-3.199 0-6.502.415-8.588 1.174l8.588-7.39 8.589 7.39Zm-8.867-7.63L7.365 20.58c-.383.207-.696.449-.87.69l-.938-7.147 3.199.034c.174 0 .347-.138.347-.31l.279-3.557 3.824 1.347c.035 0 .07.034.105.034.139 0 .278-.07.313-.207l.486-1.243 2.643 2.244ZM14.458 7.39l-.765 2.003-3.095-2.659.696-1.796 3.164 2.452ZM8.791 2.002h3.79l-1.635 1.969L5.94 3.9l2.852-1.899ZM6.739.932l1.043.932-2.851 1.934L2.914.759l3.825.173ZM.863 3.487l1.425-2.486L4.41 4.212l-2.364 2.52L.863 3.488Zm1.286 4.144 1.739-1.865L2.462 9.53l-1.356 1.001 1.043-2.9Z" fill="#F60"/></svg>