<svg width="34" height="25" fill="none" xmlns="http://www.w3.org/2000/svg"><path d="M.531 25h32.938a.538.538 0 0 0 .531-.544c0-.3-.238-.543-.531-.543H.53a.537.537 0 0 0-.531.543c0 .3.238.544.531.544Zm0-22.283h32.938c.14 0 .276-.057.375-.159A.55.55 0 0 0 34 2.174V.544a.55.55 0 0 0-.156-.385A.525.525 0 0 0 33.47 0H.53a.525.525 0 0 0-.376.16A.55.55 0 0 0 0 .542v1.63a.55.55 0 0 0 .155.385c.1.102.235.16.376.16ZM32.938 1.63H1.061v-.543h31.875v.543Z" fill="#F60"/><path d="M32.938 25c.14 0 .276-.058.375-.16a.55.55 0 0 0 .156-.384V2.174c0-.3-.238-.544-.531-.544a.538.538 0 0 0-.532.544v22.282a.55.55 0 0 0 .156.384c.1.102.235.16.376.16ZM1.063 25c.14 0 .276-.058.375-.16a.55.55 0 0 0 .156-.384V2.174c0-.3-.238-.544-.532-.544a.538.538 0 0 0-.53.544v22.282a.55.55 0 0 0 .155.384c.1.102.235.16.375.16Zm2.124 0h27.625a.527.527 0 0 0 .376-.16.55.55 0 0 0 .155-.384V6.52a.55.55 0 0 0-.155-.384.525.525 0 0 0-.376-.16H3.187a.525.525 0 0 0-.376.16.55.55 0 0 0-.155.384v17.935a.55.55 0 0 0 .155.384c.1.102.235.16.376.16Zm27.094-1.088H3.718V7.065h26.563v16.847Z" fill="#F60"/><path d="M3.187 8.695h27.625a.538.538 0 0 0 .531-.543c0-.3-.238-.544-.53-.544H3.186a.538.538 0 0 0-.531.544c0 .3.238.543.53.543Zm0 1.631h27.625a.538.538 0 0 0 .531-.544c0-.3-.238-.543-.53-.543H3.186a.538.538 0 0 0-.531.543c0 .3.238.544.53.544ZM22.313 25h4.25a.52.52 0 0 0 .375-.16.55.55 0 0 0 .156-.384V20.11a.55.55 0 0 0-.156-.385.525.525 0 0 0-.375-.159h-4.25a.525.525 0 0 0-.376.16.55.55 0 0 0-.155.384v4.347a.55.55 0 0 0 .155.385c.1.102.235.159.376.159Zm3.719-1.087h-3.188v-3.26h3.188v3.26Z" fill="#F60"/><path d="M24.437 21.74c.14 0 .276-.058.376-.16a.55.55 0 0 0 .155-.384v-1.087c0-.3-.238-.544-.53-.544a.538.538 0 0 0-.532.544v1.087a.55.55 0 0 0 .155.384c.1.102.235.16.376.16ZM26.562 25h4.25a.523.523 0 0 0 .376-.16.55.55 0 0 0 .155-.384V20.11a.55.55 0 0 0-.155-.385.525.525 0 0 0-.376-.159h-4.25a.525.525 0 0 0-.376.16.55.55 0 0 0-.155.384v4.347a.55.55 0 0 0 .155.385c.1.102.235.159.376.159Zm3.719-1.087h-3.188v-3.26h3.188v3.26Z" fill="#F60"/><path d="M28.687 21.74a.527.527 0 0 0 .376-.16.55.55 0 0 0 .156-.384v-1.087c0-.3-.238-.544-.532-.544a.537.537 0 0 0-.53.544v1.087a.55.55 0 0 0 .155.384c.1.102.235.16.375.16Z" fill="#F60"/><path d="M26.562 20.652h4.25a.523.523 0 0 0 .376-.16.55.55 0 0 0 .155-.384v-4.347a.55.55 0 0 0-.155-.385.525.525 0 0 0-.376-.159h-4.25a.525.525 0 0 0-.376.16.55.55 0 0 0-.155.384v4.348a.55.55 0 0 0 .155.384c.1.102.235.159.376.159Zm3.719-1.087h-3.188v-3.26h3.188v3.26Z" fill="#F60"/><path d="M28.687 17.391a.526.526 0 0 0 .376-.159.55.55 0 0 0 .156-.384V15.76c0-.3-.238-.544-.532-.544a.537.537 0 0 0-.53.544v1.087a.55.55 0 0 0 .155.384c.1.102.235.16.375.16ZM7.439 25h4.25c.14 0 .276-.057.376-.16a.55.55 0 0 0 .155-.384V20.11a.55.55 0 0 0-.155-.385.525.525 0 0 0-.376-.159h-4.25a.525.525 0 0 0-.376.16.55.55 0 0 0-.155.384v4.347a.55.55 0 0 0 .155.385c.1.102.235.159.376.159Zm3.719-1.087H7.97v-3.26h3.188v3.26Z" fill="#F60"/><path d="M9.562 21.74a.527.527 0 0 0 .376-.16.55.55 0 0 0 .155-.384v-1.087c0-.3-.237-.544-.53-.544a.537.537 0 0 0-.532.544v1.087a.55.55 0 0 0 .156.384c.1.102.234.16.375.16ZM3.186 25h4.25a.52.52 0 0 0 .375-.16.55.55 0 0 0 .156-.384V20.11a.55.55 0 0 0-.156-.385.525.525 0 0 0-.375-.159h-4.25a.525.525 0 0 0-.376.16.55.55 0 0 0-.156.384v4.347a.55.55 0 0 0 .156.385c.1.102.235.159.376.159Zm3.718-1.087H3.717v-3.26h3.187v3.26Z" fill="#F60"/><path d="M5.312 21.74c.14 0 .276-.058.376-.16a.55.55 0 0 0 .155-.384v-1.087c0-.3-.238-.544-.531-.544a.537.537 0 0 0-.531.544v1.087a.55.55 0 0 0 .155.384c.1.102.235.16.376.16Z" fill="#F60"/><path d="M3.186 20.652h4.25a.52.52 0 0 0 .375-.16.55.55 0 0 0 .156-.384v-4.347a.55.55 0 0 0-.156-.385.525.525 0 0 0-.375-.159h-4.25a.525.525 0 0 0-.376.16.55.55 0 0 0-.156.384v4.348a.55.55 0 0 0 .156.384c.1.102.235.159.376.159Zm3.718-1.087H3.717v-3.26h3.187v3.26Z" fill="#F60"/><path d="M5.312 17.391c.14 0 .276-.057.376-.159a.55.55 0 0 0 .155-.384V15.76c0-.3-.238-.544-.531-.544a.537.537 0 0 0-.531.544v1.087a.55.55 0 0 0 .155.384c.1.102.235.16.376.16Zm9.564-12.5h4.25a.538.538 0 0 0 .531-.543c0-.3-.238-.544-.531-.544h-4.25a.537.537 0 0 0-.531.544c0 .3.237.543.53.543Z" fill="#F60"/></svg>